<?xml version="1.0" encoding="utf-8"?>
<!-- Generator: Adobe Illustrator 24.1.2, SVG Export Plug-In . SVG Version: 6.00 Build 0)  -->
<svg version="1.1" xmlns="http://www.w3.org/2000/svg" xmlns:xlink="http://www.w3.org/1999/xlink" x="0px" y="0px"
	 viewBox="0 0 27 39" enable-background="new 0 0 27 39" xml:space="preserve">
<g id="圖層_1_拷貝_2" display="none">
	<path display="inline" fill="#5A5A5A" d="M27,39V13.5C27,6.1,20.9,0,13.5,0S0,6.1,0,13.5V39H27z"/>
	<path display="inline" fill="#454545" d="M25,13.5C25,7.2,19.8,2,13.5,2S2,7.2,2,13.5V39h23V13.5z"/>
	<g display="inline">
		<path fill="#FFFFFF" d="M19,17.4H8l5.5-8L19,17.4z"/>
	</g>
</g>
<g id="圖層_1_拷貝_3" display="none">
	<path display="inline" fill="#5A5A5A" d="M27,39V13.5C27,6.1,20.9,0,13.5,0S0,6.1,0,13.5V39H27z"/>
	<g display="inline">
		<path fill="#7A797A" d="M25,13.5C25,7.2,19.8,2,13.5,2S2,7.2,2,13.5V39h23V13.5z"/>
	</g>
	<g display="inline">
		<path fill="#FFFFFF" d="M19,17.4H8l5.5-8L19,17.4z"/>
	</g>
</g>
<g id="圖層_1_拷貝_4">
	<path fill="#5A5A5A" d="M0,0l0,25.5C0,32.9,6.1,39,13.5,39C20.9,39,27,32.9,27,25.5L27,0L0,0z"/>
	<g>
		<path fill="#1F1E1F" d="M2,25.5C2,31.9,7.2,37,13.5,37C19.8,37,25,31.9,25,25.5L25,0L2,0L2,25.5z"/>
	</g>
	<g>
		<path fill="#FFFFFF" d="M8,21.6l11,0l-5.5,8L8,21.6z"/>
	</g>
</g>
</svg>
