<?xml version="1.0" encoding="utf-8"?>
<!-- Generator: Adobe Illustrator 24.1.2, SVG Export Plug-In . SVG Version: 6.00 Build 0)  -->
<svg version="1.1" xmlns="http://www.w3.org/2000/svg" xmlns:xlink="http://www.w3.org/1999/xlink" x="0px" y="0px"
	 viewBox="0 0 37 27" enable-background="new 0 0 37 27" xml:space="preserve">
<g id="圖層_1" display="none">
	<path display="inline" fill="#5A5A5A" d="M37,0H13.5C6.1,0,0,6.1,0,13.5S6.1,27,13.5,27H37V0z"/>
	<path display="inline" fill="#454545" d="M37,2H13.5C7.2,2,2,7.2,2,13.5S7.2,25,13.5,25H37V2z"/>
	<g display="inline">
		<path fill="#FFFFFF" d="M17,7.5l0,11L9,13L17,7.5z"/>
	</g>
</g>
<g id="圖層_1_拷貝">
	<path fill="#5A5A5A" d="M37,0H13.5C6.1,0,0,6.1,0,13.5S6.1,27,13.5,27H37V0z"/>
	<g>
		<path fill="#7A797A" d="M37,2H13.5C7.2,2,2,7.2,2,13.5S7.2,25,13.5,25H37V2z"/>
	</g>
	<g>
		<path fill="#FFFFFF" d="M17,7.5l0,11L9,13L17,7.5z"/>
	</g>
</g>
<g id="圖層_1_拷貝_2" display="none">
	<path display="inline" fill="#5A5A5A" d="M37,0H13.5C6.1,0,0,6.1,0,13.5S6.1,27,13.5,27H37V0z"/>
	<g display="inline">
		<path fill="#1F1E1F" d="M37,2H13.5C7.2,2,2,7.2,2,13.5S7.2,25,13.5,25H37V2z"/>
	</g>
	<g display="inline">
		<path fill="#FFFFFF" d="M17,7.5l0,11L9,13L17,7.5z"/>
	</g>
</g>
</svg>
