<?xml version="1.0" encoding="utf-8"?>
<!-- Generator: Adobe Illustrator 24.1.2, SVG Export Plug-In . SVG Version: 6.00 Build 0)  -->
<svg version="1.1" xmlns="http://www.w3.org/2000/svg" xmlns:xlink="http://www.w3.org/1999/xlink" x="0px" y="0px"
	 viewBox="0 0 37 27" enable-background="new 0 0 37 27" xml:space="preserve">
<g id="圖層_1" display="none">
	<path display="inline" fill="#5A5A5A" d="M0,27h23.5C30.9,27,37,20.9,37,13.5S30.9,0,23.5,0H0V27z"/>
	<path display="inline" fill="#454545" d="M0,25h23.5C29.8,25,35,19.8,35,13.5S29.8,2,23.5,2H0V25z"/>
	<g display="inline">
		<path fill="#FFFFFF" d="M20,19.5l0-11l8,5.5L20,19.5z"/>
	</g>
</g>
<g id="圖層_1_拷貝" display="none">
	<path display="inline" fill="#5A5A5A" d="M0,27h23.5C30.9,27,37,20.9,37,13.5S30.9,0,23.5,0H0V27z"/>
	<g display="inline">
		<path fill="#7A797A" d="M0,25h23.5C29.8,25,35,19.8,35,13.5S29.8,2,23.5,2H0V25z"/>
	</g>
	<g display="inline">
		<path fill="#FFFFFF" d="M20,19.5l0-11l8,5.5L20,19.5z"/>
	</g>
</g>
<g id="圖層_1_拷貝_2">
	<path fill="#5A5A5A" d="M0,27l23.5,0C30.9,27,37,20.9,37,13.5C37,6.1,30.9,0,23.5,0L0,0L0,27z"/>
	<g>
		<path fill="#1F1E1F" d="M0,25l23.5,0C29.8,25,35,19.8,35,13.5C35,7.2,29.8,2,23.5,2L0,2L0,25z"/>
	</g>
	<g>
		<path fill="#FFFFFF" d="M20,19.5l0-11l8,5.5L20,19.5z"/>
	</g>
</g>
</svg>
