<?xml version="1.0" encoding="utf-8"?>
<!-- Generator: Adobe Illustrator 24.1.2, SVG Export Plug-In . SVG Version: 6.00 Build 0)  -->
<svg version="1.1" xmlns="http://www.w3.org/2000/svg" xmlns:xlink="http://www.w3.org/1999/xlink" x="0px" y="0px"
	 viewBox="0 0 57 76" style="enable-background:new 0 0 57 76;" xml:space="preserve">
<style type="text/css">
	.st0{fill:#434345;}
	.st1{fill:#747575;}
	.st2{fill:#FFFFFF;}
	.st3{display:none;}
	.st4{display:inline;fill:#434345;}
	.st5{display:inline;opacity:0.15;fill:#FFFFFF;}
	.st6{display:inline;fill:#747575;}
	.st7{display:inline;}
	.st8{fill:#6DD1FF;}
	.st9{display:inline;opacity:0.15;}
	.st10{fill:#1FB8FF;}
</style>
<g id="圖層_1">
	<path class="st0" d="M2.38,0v64.13c0,5.24,4.26,9.5,9.5,9.5h33.25c5.24,0,9.5-4.26,9.5-9.5V0H2.38z"/>
	<path class="st1" d="M54.63,0v64.13c0,5.24-4.26,9.5-9.5,9.5H11.88c-5.24,0-9.5-4.26-9.5-9.5V0H0v64.13C0,70.66,5.34,76,11.88,76
		h33.25C51.66,76,57,70.66,57,64.13V0H54.63z"/>
	<g>
		<path class="st2" d="M42.25,55.29c0.08,0.25,0.15,0.53,0.15,0.78c0,0.56-0.22,1.09-0.62,1.5c-0.41,0.41-0.94,0.62-1.47,0.62
			c-0.28,0-0.53-0.06-0.78-0.15c-0.53-0.22-1.43-1.22-1.81-1.59c-1.15-1.16-2.31-2.31-3.46-3.43c-2.19,1.56-4.71,2.31-7.24,2.31
			c-3.59,0-7.14-1.53-9.61-4.46c-2.01-2.34-2.96-5.21-2.96-8.07c0-3.21,1.25-6.46,3.68-8.89c2.43-2.43,5.65-3.65,8.86-3.65
			c2.89,0,5.76,0.97,8.11,2.96c4.99,4.21,5.89,11.54,2.12,16.85c1.16,1.16,2.31,2.31,3.43,3.43C41.05,53.86,42.03,54.76,42.25,55.29
			z M37.35,42.78c0-2.84-1.16-5.43-3.03-7.3c-1.91-1.87-4.46-3.03-7.33-3.03c-2.87,0-5.43,1.16-7.3,3.03
			c-1.87,1.87-3.03,4.46-3.03,7.3c0,5.71,4.62,10.32,10.33,10.32c2.87,0,5.42-1.16,7.33-3.03C36.19,48.21,37.35,45.62,37.35,42.78z"
			/>
		<rect x="19.25" y="41.41" class="st2" width="15.51" height="2.71"/>
	</g>
</g>
<g id="圖層_1_拷貝" class="st3">
	<path class="st4" d="M2.38,0v64.13c0,5.24,4.26,9.5,9.5,9.5h33.25c5.24,0,9.5-4.26,9.5-9.5V0H2.38z"/>
	<path class="st5" d="M2.38,0v64.13c0,5.24,4.26,9.5,9.5,9.5h33.25c5.24,0,9.5-4.26,9.5-9.5V0H2.38z"/>
	<path class="st6" d="M54.63,0v64.13c0,5.24-4.26,9.5-9.5,9.5H11.88c-5.24,0-9.5-4.26-9.5-9.5V0H0v64.13C0,70.66,5.34,76,11.88,76
		h33.25C51.66,76,57,70.66,57,64.13V0H54.63z"/>
	<g class="st7">
		<path class="st8" d="M42.25,55.29c0.08,0.25,0.15,0.53,0.15,0.78c0,0.56-0.22,1.09-0.62,1.5c-0.41,0.41-0.94,0.62-1.47,0.62
			c-0.28,0-0.53-0.06-0.78-0.15c-0.53-0.22-1.43-1.22-1.81-1.59c-1.15-1.16-2.31-2.31-3.46-3.43c-2.19,1.56-4.71,2.31-7.24,2.31
			c-3.59,0-7.14-1.53-9.61-4.46c-2.01-2.34-2.96-5.21-2.96-8.07c0-3.21,1.25-6.46,3.68-8.89c2.43-2.43,5.65-3.65,8.86-3.65
			c2.89,0,5.76,0.97,8.11,2.96c4.99,4.21,5.89,11.54,2.12,16.85c1.16,1.16,2.31,2.31,3.43,3.43C41.05,53.86,42.03,54.76,42.25,55.29
			z M37.35,42.78c0-2.84-1.16-5.43-3.03-7.3c-1.91-1.87-4.46-3.03-7.33-3.03c-2.87,0-5.43,1.16-7.3,3.03
			c-1.87,1.87-3.03,4.46-3.03,7.3c0,5.71,4.62,10.32,10.33,10.32c2.87,0,5.42-1.16,7.33-3.03C36.19,48.21,37.35,45.62,37.35,42.78z"
			/>
		<rect x="19.25" y="41.41" class="st8" width="15.51" height="2.71"/>
	</g>
</g>
<g id="圖層_1_拷貝_2" class="st3">
	<path class="st4" d="M2.38,0v64.13c0,5.24,4.26,9.5,9.5,9.5h33.25c5.24,0,9.5-4.26,9.5-9.5V0H2.38z"/>
	<path class="st9" d="M2.38,0v64.13c0,5.24,4.26,9.5,9.5,9.5h33.25c5.24,0,9.5-4.26,9.5-9.5V0H2.38z"/>
	<path class="st6" d="M54.63,0v64.13c0,5.24-4.26,9.5-9.5,9.5H11.88c-5.24,0-9.5-4.26-9.5-9.5V0H0v64.13C0,70.66,5.34,76,11.88,76
		h33.25C51.66,76,57,70.66,57,64.13V0H54.63z"/>
	<path class="st9" d="M54.63,0v64.13c0,5.24-4.26,9.5-9.5,9.5H11.88c-5.24,0-9.5-4.26-9.5-9.5V0H0v64.13C0,70.66,5.34,76,11.88,76
		h33.25C51.66,76,57,70.66,57,64.13V0H54.63z"/>
	<g class="st7">
		<path class="st10" d="M42.25,55.29c0.08,0.25,0.15,0.53,0.15,0.78c0,0.56-0.22,1.09-0.62,1.5c-0.41,0.41-0.94,0.62-1.47,0.62
			c-0.28,0-0.53-0.06-0.78-0.15c-0.53-0.22-1.43-1.22-1.81-1.59c-1.15-1.16-2.31-2.31-3.46-3.43c-2.19,1.56-4.71,2.31-7.24,2.31
			c-3.59,0-7.14-1.53-9.61-4.46c-2.01-2.34-2.96-5.21-2.96-8.07c0-3.21,1.25-6.46,3.68-8.89c2.43-2.43,5.65-3.65,8.86-3.65
			c2.89,0,5.76,0.97,8.11,2.96c4.99,4.21,5.89,11.54,2.12,16.85c1.16,1.16,2.31,2.31,3.43,3.43C41.05,53.86,42.03,54.76,42.25,55.29
			z M37.35,42.78c0-2.84-1.16-5.43-3.03-7.3c-1.91-1.87-4.46-3.03-7.33-3.03c-2.87,0-5.43,1.16-7.3,3.03
			c-1.87,1.87-3.03,4.46-3.03,7.3c0,5.71,4.62,10.32,10.33,10.32c2.87,0,5.42-1.16,7.33-3.03C36.19,48.21,37.35,45.62,37.35,42.78z"
			/>
		<rect x="19.25" y="41.41" class="st10" width="15.51" height="2.71"/>
	</g>
</g>
</svg>
