<?xml version="1.0" encoding="utf-8"?>
<!-- Generator: Adobe Illustrator 24.1.2, SVG Export Plug-In . SVG Version: 6.00 Build 0)  -->
<svg version="1.1" xmlns="http://www.w3.org/2000/svg" xmlns:xlink="http://www.w3.org/1999/xlink" x="0px" y="0px"
	 viewBox="0 0 57 76" style="enable-background:new 0 0 57 76;" xml:space="preserve">
<style type="text/css">
	.st0{fill:#444445;}
	.st1{fill:#757676;}
	.st2{fill:#FFFFFF;}
	.st3{display:none;}
	.st4{display:inline;fill:#444445;}
	.st5{display:inline;opacity:0.15;fill:#FFFFFF;}
	.st6{display:inline;fill:#757676;}
	.st7{display:inline;}
	.st8{fill:#6DD1FF;}
	.st9{display:inline;opacity:0.15;}
	.st10{fill:#1FB8FF;}
</style>
<g id="圖層_3">
	<path class="st0" d="M54.62,76V11.88c0-5.24-4.26-9.5-9.5-9.5H11.87c-5.24,0-9.5,4.26-9.5,9.5V76H54.62z"/>
	<path class="st1" d="M2.38,76V11.88c0-5.24,4.26-9.5,9.5-9.5h33.25c5.24,0,9.5,4.26,9.5,9.5V76H57V11.88C57,5.34,51.66,0,45.12,0
		H11.87C5.34,0,0,5.34,0,11.88V76H2.38z"/>
	<g>
		<path class="st2" d="M42.4,44.07c0.09,0.25,0.16,0.5,0.16,0.78c0,0.53-0.22,1.06-0.62,1.47c-0.41,0.41-0.94,0.62-1.47,0.62
			c-0.28,0-0.53-0.06-0.78-0.16c-0.53-0.22-1.43-1.19-1.81-1.56c-1.15-1.16-2.31-2.31-3.46-3.47c-2.19,1.56-4.74,2.34-7.27,2.34
			c-3.59,0-7.11-1.52-9.57-4.46c-2.01-2.34-2.96-5.24-2.96-8.08c0-3.24,1.25-6.46,3.68-8.89c2.43-2.43,5.68-3.68,8.89-3.68
			c2.87,0,5.73,0.97,8.08,2.96c4.99,4.21,5.9,11.54,2.12,16.87c1.16,1.13,2.31,2.28,3.43,3.43C41.21,42.64,42.18,43.54,42.4,44.07z
			 M37.5,31.57c0-5.74-4.65-10.36-10.36-10.36c-2.87,0-5.43,1.16-7.29,3.03c-1.87,1.87-3.03,4.46-3.03,7.33
			c0,2.84,1.16,5.43,3.03,7.3c1.87,1.88,4.43,3.03,7.29,3.03c2.87,0,5.42-1.16,7.33-3.03C36.34,37,37.5,34.41,37.5,31.57z"/>
		<polygon class="st2" points="34.91,30.2 34.91,32.91 28.52,32.91 28.52,39.3 25.8,39.3 25.8,32.91 19.41,32.91 19.41,30.2 
			25.8,30.2 25.8,23.8 28.52,23.8 28.52,30.2 		"/>
	</g>
</g>
<g id="圖層_3_拷貝" class="st3">
	<path class="st4" d="M54.62,76V11.88c0-5.24-4.26-9.5-9.5-9.5H11.87c-5.24,0-9.5,4.26-9.5,9.5V76H54.62z"/>
	<path class="st5" d="M54.62,76V11.88c0-5.24-4.26-9.5-9.5-9.5H11.87c-5.24,0-9.5,4.26-9.5,9.5V76H54.62z"/>
	<path class="st6" d="M2.38,76V11.88c0-5.24,4.26-9.5,9.5-9.5h33.25c5.24,0,9.5,4.26,9.5,9.5V76H57V11.88C57,5.34,51.66,0,45.12,0
		H11.87C5.34,0,0,5.34,0,11.88V76H2.38z"/>
	<g class="st7">
		<path class="st8" d="M42.4,44.07c0.09,0.25,0.16,0.5,0.16,0.78c0,0.53-0.22,1.06-0.62,1.47c-0.41,0.41-0.94,0.62-1.47,0.62
			c-0.28,0-0.53-0.06-0.78-0.16c-0.53-0.22-1.43-1.19-1.81-1.56c-1.15-1.16-2.31-2.31-3.46-3.47c-2.19,1.56-4.74,2.34-7.27,2.34
			c-3.59,0-7.11-1.52-9.57-4.46c-2.01-2.34-2.96-5.24-2.96-8.08c0-3.24,1.25-6.46,3.68-8.89c2.43-2.43,5.68-3.68,8.89-3.68
			c2.87,0,5.73,0.97,8.08,2.96c4.99,4.21,5.9,11.54,2.12,16.87c1.16,1.13,2.31,2.28,3.43,3.43C41.21,42.64,42.18,43.54,42.4,44.07z
			 M37.5,31.57c0-5.74-4.65-10.36-10.36-10.36c-2.87,0-5.43,1.16-7.29,3.03c-1.87,1.87-3.03,4.46-3.03,7.33
			c0,2.84,1.16,5.43,3.03,7.3c1.87,1.88,4.43,3.03,7.29,3.03c2.87,0,5.42-1.16,7.33-3.03C36.34,37,37.5,34.41,37.5,31.57z"/>
		<polygon class="st8" points="34.91,30.2 34.91,32.91 28.52,32.91 28.52,39.3 25.8,39.3 25.8,32.91 19.41,32.91 19.41,30.2 
			25.8,30.2 25.8,23.8 28.52,23.8 28.52,30.2 		"/>
	</g>
</g>
<g id="圖層_3_拷貝_2" class="st3">
	<path class="st4" d="M54.62,76V11.88c0-5.24-4.26-9.5-9.5-9.5H11.87c-5.24,0-9.5,4.26-9.5,9.5V76H54.62z"/>
	<path class="st9" d="M54.62,76V11.88c0-5.24-4.26-9.5-9.5-9.5H11.87c-5.24,0-9.5,4.26-9.5,9.5V76H54.62z"/>
	<path class="st6" d="M2.38,76V11.88c0-5.24,4.26-9.5,9.5-9.5h33.25c5.24,0,9.5,4.26,9.5,9.5V76H57V11.88C57,5.34,51.66,0,45.12,0
		H11.87C5.34,0,0,5.34,0,11.88V76H2.38z"/>
	<path class="st9" d="M2.38,76V11.88c0-5.24,4.26-9.5,9.5-9.5h33.25c5.24,0,9.5,4.26,9.5,9.5V76H57V11.88C57,5.34,51.66,0,45.12,0
		H11.87C5.34,0,0,5.34,0,11.88V76H2.38z"/>
	<g class="st7">
		<path class="st10" d="M42.4,44.07c0.09,0.25,0.16,0.5,0.16,0.78c0,0.53-0.22,1.06-0.62,1.47c-0.41,0.41-0.94,0.62-1.47,0.62
			c-0.28,0-0.53-0.06-0.78-0.16c-0.53-0.22-1.43-1.19-1.81-1.56c-1.15-1.16-2.31-2.31-3.46-3.47c-2.19,1.56-4.74,2.34-7.27,2.34
			c-3.59,0-7.11-1.52-9.57-4.46c-2.01-2.34-2.96-5.24-2.96-8.08c0-3.24,1.25-6.46,3.68-8.89c2.43-2.43,5.68-3.68,8.89-3.68
			c2.87,0,5.73,0.97,8.08,2.96c4.99,4.21,5.9,11.54,2.12,16.87c1.16,1.13,2.31,2.28,3.43,3.43C41.21,42.64,42.18,43.54,42.4,44.07z
			 M37.5,31.57c0-5.74-4.65-10.36-10.36-10.36c-2.87,0-5.43,1.16-7.29,3.03c-1.87,1.87-3.03,4.46-3.03,7.33
			c0,2.84,1.16,5.43,3.03,7.3c1.87,1.88,4.43,3.03,7.29,3.03c2.87,0,5.42-1.16,7.33-3.03C36.34,37,37.5,34.41,37.5,31.57z"/>
		<polygon class="st10" points="34.91,30.2 34.91,32.91 28.52,32.91 28.52,39.3 25.8,39.3 25.8,32.91 19.41,32.91 19.41,30.2 
			25.8,30.2 25.8,23.8 28.52,23.8 28.52,30.2 		"/>
	</g>
</g>
</svg>
